<svg width="238" height="238" viewBox="0 0 238 238" fill="none" xmlns="http://www.w3.org/2000/svg">
<path d="M234.553 115.45C233.588 84.7605 220.459 55.7121 198.052 34.6944C175.645 13.6768 145.797 2.41158 115.074 3.3771C99.8609 3.85517 84.8912 7.32157 71.0193 13.5784C57.1473 19.8352 44.6447 28.7599 34.2254 39.8428C23.8061 50.9258 15.674 63.9501 10.2936 78.172C4.91314 92.3939 2.38964 107.535 2.86718 122.73C3.83162 153.419 16.9614 182.468 39.3681 203.486C61.7748 224.503 91.623 235.768 122.346 234.803C137.559 234.325 152.529 230.858 166.401 224.602C180.273 218.345 192.775 209.42 203.195 198.337C213.614 187.254 221.746 174.23 227.126 160.008C232.507 145.786 235.03 130.645 234.553 115.45Z" stroke="#86C6A5" stroke-width="2"/>
<path d="M225.02 119.09C225.02 90.8922 213.818 63.8493 193.88 43.9104C173.941 23.9715 146.898 12.77 118.7 12.77C90.5022 12.77 63.4593 23.9715 43.5204 43.9104C23.5815 63.8493 12.38 90.8922 12.38 119.09C12.38 147.288 23.5815 174.331 43.5204 194.27C63.4593 214.208 90.5022 225.41 118.7 225.41C146.898 225.41 173.941 214.208 193.88 194.27C213.818 174.331 225.02 147.288 225.02 119.09Z" stroke="#86C6A5" stroke-width="2"/>
<path d="M116.99 28.25C113.34 45.54 108.24 62.27 105.27 79.75C103.48 90.31 100.01 145.69 116.01 150.05C126.71 152.97 130.18 127.04 130.72 120.77C132.42 100.91 130.843 81.32 125.99 62C123.17 50.78 120.377 39.5267 117.61 28.24C117.591 28.1714 117.55 28.111 117.493 28.0683C117.437 28.0256 117.367 28.0031 117.296 28.0042C117.225 28.0054 117.156 28.0302 117.101 28.0747C117.045 28.1192 117.006 28.1808 116.99 28.25Z" stroke="#86C6A5" stroke-width="2"/>
<path d="M100.56 97C101.47 80.84 103.51 65.08 106.7 49.21C106.732 49.0555 106.731 48.8959 106.699 48.7411C106.666 48.5863 106.602 48.4395 106.51 48.31C104 44.78 99.58 43.77 95.33 43.09C94.971 43.0314 94.6377 42.8717 94.37 42.63C92.0633 40.5233 89.4233 38.9867 86.45 38.02C86.2924 37.9693 86.1235 37.9657 85.9639 38.0096C85.8043 38.0536 85.661 38.1432 85.5516 38.2675C85.4422 38.3917 85.3715 38.5452 85.3481 38.7091C85.3247 38.873 85.3497 39.0401 85.42 39.19C87.6 43.79 87.35 54.33 87.18 59.6C86.63 76.42 85.88 95.65 87.56 112.98C88.95 127.43 92.78 144.53 108.76 148.19C108.867 148.213 108.978 148.201 109.077 148.157C109.177 148.113 109.261 148.039 109.316 147.945C109.371 147.851 109.395 147.742 109.385 147.633C109.375 147.525 109.332 147.422 109.26 147.34C99.29 135.95 99.76 111.16 100.56 97Z" stroke="#86C6A5" stroke-width="2"/>
<path d="M148.34 43.66C148.873 42.76 148.98 41.7367 148.66 40.59C148.623 40.4615 148.62 40.3256 148.649 40.1946C148.679 40.0636 148.741 39.9417 148.83 39.84L149.47 39.1C149.803 38.72 149.72 38.4767 149.22 38.37C144.82 37.44 142.64 42.37 138.23 43.29C134.22 44.12 130.84 44.88 128.23 48.3C128.023 48.5667 127.957 48.8633 128.03 49.19C131.637 66.3367 133.793 83.6667 134.5 101.18C135.02 114.23 134.74 136.87 125.57 147.32C125.497 147.403 125.452 147.507 125.442 147.617C125.432 147.727 125.457 147.837 125.514 147.932C125.571 148.026 125.656 148.1 125.758 148.143C125.86 148.186 125.973 148.195 126.08 148.17C138.45 145.3 143.39 134.57 145.81 122.75C150.56 99.45 147.58 73.22 147.65 49.15C147.66 47.79 148.31 46.2 148.13 44.58C148.097 44.2467 148.167 43.94 148.34 43.66Z" stroke="#86C6A5" stroke-width="2"/>
<path d="M83.01 65.93C80.37 65.4433 77.8233 64.98 75.37 64.54C71.66 63.88 68.36 61.77 64.3 60.84C64.1696 60.8125 64.034 60.8234 63.9096 60.8713C63.7853 60.9192 63.6774 61.0021 63.5991 61.11C63.5209 61.2178 63.4755 61.3461 63.4686 61.4792C63.4616 61.6123 63.4934 61.7446 63.56 61.86C67.08 67.72 68.04 76.13 68.27 82.82C69.09 106.65 67.04 136.41 95.82 145.18C96.88 145.5 97.0533 145.237 96.34 144.39C87.8 134.23 85.73 119.14 85.16 106.24C84.5867 93.1333 84.2 80.0867 84 67.1C83.9973 66.8215 83.8971 66.5525 83.7165 66.3391C83.5358 66.1256 83.2861 65.981 83.01 65.93Z" stroke="#86C6A5" stroke-width="2"/>
<path d="M151.06 67.17C150.07 88.34 151.38 108.96 146.3 129.75C145.047 134.877 142.29 139.947 138.03 144.96C137.737 145.307 137.81 145.423 138.25 145.31C159.03 139.94 165.1 122.4 165.7 102.75C165.967 94.2367 166.437 85.74 167.11 77.26C167.563 71.64 168.873 66.7567 171.04 62.61C171.913 60.9433 171.453 60.3933 169.66 60.96C167.44 61.6533 165.303 62.4667 163.25 63.4C159.64 65.06 155.8 65.01 152 66C151.739 66.0698 151.508 66.2209 151.339 66.4313C151.17 66.6417 151.072 66.9004 151.06 67.17Z" stroke="#86C6A5" stroke-width="2"/>
<path d="M54.5599 153.69C46.7666 150.877 39.0633 151.06 31.4499 154.24C31.0033 154.427 31.0099 154.6 31.4699 154.76C40.9899 158.07 47.62 166.78 54.52 173.61C59.78 178.82 67.75 183.34 74.45 178.27C75.7366 177.297 77.4833 175.053 79.6899 171.54C84.9199 163.23 88.5199 157 98.2999 153.39C98.367 153.364 98.424 153.316 98.4617 153.254C98.4994 153.193 98.5155 153.12 98.5073 153.049C98.4992 152.978 98.4673 152.913 98.4169 152.864C98.3665 152.815 98.3006 152.786 98.23 152.78C90.26 151.86 83.4799 155.29 76.2499 158.02C68.1099 161.1 61.2199 156.09 54.5599 153.69Z" stroke="#86C6A5" stroke-width="2"/>
<path d="M182.21 171.91C188.21 165.44 194.47 157.68 203.34 154.76C203.913 154.573 203.917 154.367 203.35 154.14C194.903 150.787 186.103 151.07 176.95 154.99C173.51 156.46 169.88 158.4 166.85 158.9C156.47 160.61 147.78 150.68 136.44 152.97C135.853 153.083 135.84 153.243 136.4 153.45C148.94 158.13 151.08 166.36 157.47 175.28C164.65 185.31 175.91 178.71 182.21 171.91Z" stroke="#86C6A5" stroke-width="2"/>
<path d="M148.38 176.61C148.593 173.95 147.967 171.407 146.5 168.98" stroke="#6DAD8B" stroke-width="2"/>
<path d="M146.5 168.98C141.74 159.14 129.3 149.12 118.11 155.64C117.83 155.8 117.547 155.807 117.26 155.66C93.88 143.66 70.5299 187.2 100.55 199.48C106.463 201.893 111.203 204.243 114.77 206.53C114.836 206.57 114.897 206.624 114.95 206.69C115.67 207.523 116.29 208.413 116.81 209.36C116.851 209.435 116.909 209.499 116.981 209.546C117.052 209.593 117.134 209.621 117.219 209.629C117.304 209.637 117.389 209.624 117.468 209.591C117.547 209.558 117.616 209.506 117.67 209.44C124.42 201.18 135.61 201.01 143 193.63C147.44 189.197 149.233 183.523 148.38 176.61" stroke="#86C6A5" stroke-width="2"/>
<path d="M146.5 168.98L148.38 176.61" stroke="#E6E6E6" stroke-width="2"/>
<path d="M237.04 119.09C237.04 134.631 233.979 150.019 228.032 164.377C222.085 178.734 213.368 191.78 202.379 202.769C191.39 213.758 178.344 222.475 163.987 228.422C149.629 234.369 134.241 237.43 118.7 237.43C87.3143 237.43 57.214 224.962 35.021 202.769C12.8279 180.576 0.359985 150.476 0.359985 119.09C0.359985 87.7043 12.8279 57.604 35.021 35.411C57.214 13.2179 87.3143 0.75 118.7 0.75C134.241 0.75 149.629 3.81096 163.987 9.7581C178.344 15.7052 191.39 24.4221 202.379 35.411C213.368 46.3999 222.085 59.4456 228.032 73.8032C233.979 88.1609 237.04 103.549 237.04 119.09ZM234.553 115.45C233.588 84.7605 220.459 55.7121 198.052 34.6944C175.645 13.6768 145.797 2.41159 115.074 3.3771C99.8609 3.85518 84.8912 7.32158 71.0193 13.5784C57.1473 19.8352 44.6447 28.7599 34.2254 39.8428C23.8061 50.9258 15.674 63.9501 10.2936 78.172C4.91314 92.3939 2.38964 107.535 2.86719 122.73C3.83162 153.419 16.9614 182.468 39.3681 203.486C61.7748 224.503 91.623 235.768 122.346 234.803C137.559 234.325 152.529 230.858 166.401 224.602C180.273 218.345 192.775 209.42 203.195 198.337C213.614 187.254 221.746 174.23 227.126 160.008C232.507 145.786 235.03 130.645 234.553 115.45Z" fill="#0D8D4A"/>
<path d="M234.553 115.45C235.03 130.645 232.507 145.786 227.126 160.008C221.746 174.23 213.614 187.254 203.195 198.337C192.775 209.42 180.273 218.345 166.401 224.602C152.529 230.858 137.559 234.325 122.346 234.803C91.623 235.768 61.7748 224.503 39.3681 203.486C16.9614 182.468 3.83162 153.419 2.86718 122.73C2.38964 107.535 4.91314 92.3939 10.2936 78.172C15.674 63.9501 23.8061 50.9258 34.2254 39.8428C44.6447 28.7599 57.1473 19.8352 71.0193 13.5784C84.8912 7.32157 99.8609 3.85517 115.074 3.3771C145.797 2.41158 175.645 13.6768 198.052 34.6944C220.459 55.7121 233.588 84.7605 234.553 115.45ZM225.02 119.09C225.02 90.8922 213.818 63.8493 193.88 43.9104C173.941 23.9715 146.898 12.77 118.7 12.77C90.5022 12.77 63.4592 23.9715 43.5204 43.9104C23.5815 63.8493 12.38 90.8922 12.38 119.09C12.38 147.288 23.5815 174.331 43.5204 194.27C63.4592 214.208 90.5022 225.41 118.7 225.41C146.898 225.41 173.941 214.208 193.88 194.27C213.818 174.331 225.02 147.288 225.02 119.09Z" fill="white"/>
<path d="M225.02 119.09C225.02 147.288 213.818 174.331 193.88 194.27C173.941 214.208 146.898 225.41 118.7 225.41C90.5022 225.41 63.4593 214.208 43.5204 194.27C23.5815 174.331 12.38 147.288 12.38 119.09C12.38 90.8922 23.5815 63.8493 43.5204 43.9104C63.4593 23.9715 90.5022 12.77 118.7 12.77C146.898 12.77 173.941 23.9715 193.88 43.9104C213.818 63.8493 225.02 90.8922 225.02 119.09ZM116.99 28.25C113.34 45.54 108.24 62.27 105.27 79.75C103.48 90.31 100.01 145.69 116.01 150.05C126.71 152.97 130.18 127.04 130.72 120.77C132.42 100.91 130.843 81.32 125.99 62C123.17 50.78 120.377 39.5267 117.61 28.24C117.591 28.1714 117.55 28.111 117.493 28.0683C117.437 28.0257 117.367 28.0031 117.296 28.0042C117.225 28.0054 117.156 28.0302 117.101 28.0747C117.046 28.1192 117.006 28.1809 116.99 28.25ZM100.56 97C101.47 80.84 103.51 65.08 106.7 49.21C106.732 49.0555 106.731 48.8959 106.699 48.7411C106.666 48.5863 106.602 48.4395 106.51 48.31C104 44.78 99.58 43.77 95.33 43.09C94.971 43.0314 94.6377 42.8717 94.37 42.63C92.0633 40.5233 89.4233 38.9867 86.45 38.02C86.2924 37.9693 86.1235 37.9657 85.9639 38.0097C85.8043 38.0536 85.661 38.1432 85.5516 38.2675C85.4422 38.3917 85.3715 38.5452 85.3481 38.7091C85.3247 38.873 85.3497 39.0401 85.42 39.19C87.6 43.79 87.35 54.33 87.18 59.6C86.63 76.42 85.88 95.65 87.56 112.98C88.95 127.43 92.78 144.53 108.76 148.19C108.867 148.213 108.978 148.201 109.077 148.157C109.177 148.113 109.261 148.039 109.316 147.945C109.371 147.851 109.395 147.742 109.385 147.633C109.375 147.525 109.332 147.422 109.26 147.34C99.29 135.95 99.76 111.16 100.56 97ZM148.34 43.66C148.873 42.76 148.98 41.7367 148.66 40.59C148.623 40.4615 148.62 40.3256 148.649 40.1946C148.679 40.0636 148.741 39.9417 148.83 39.84L149.47 39.1C149.803 38.72 149.72 38.4767 149.22 38.37C144.82 37.44 142.64 42.37 138.23 43.29C134.22 44.12 130.84 44.88 128.23 48.3C128.023 48.5667 127.957 48.8633 128.03 49.19C131.637 66.3367 133.793 83.6667 134.5 101.18C135.02 114.23 134.74 136.87 125.57 147.32C125.497 147.403 125.452 147.507 125.442 147.617C125.432 147.727 125.457 147.837 125.514 147.932C125.571 148.026 125.656 148.1 125.758 148.143C125.86 148.186 125.973 148.195 126.08 148.17C138.45 145.3 143.39 134.57 145.81 122.75C150.56 99.45 147.58 73.22 147.65 49.15C147.66 47.79 148.31 46.2 148.13 44.58C148.097 44.2467 148.167 43.94 148.34 43.66ZM83.01 65.93C80.37 65.4433 77.8233 64.98 75.37 64.54C71.66 63.88 68.36 61.77 64.3 60.84C64.1696 60.8125 64.034 60.8234 63.9096 60.8713C63.7853 60.9192 63.6774 61.0021 63.5992 61.11C63.5209 61.2179 63.4755 61.3461 63.4686 61.4792C63.4617 61.6123 63.4934 61.7446 63.56 61.86C67.08 67.72 68.04 76.13 68.27 82.82C69.09 106.65 67.04 136.41 95.82 145.18C96.88 145.5 97.0533 145.237 96.34 144.39C87.8 134.23 85.73 119.14 85.16 106.24C84.5867 93.1333 84.2 80.0867 84 67.1C83.9973 66.8215 83.8971 66.5525 83.7165 66.3391C83.5358 66.1256 83.2861 65.981 83.01 65.93ZM151.06 67.17C150.07 88.34 151.38 108.96 146.3 129.75C145.047 134.877 142.29 139.947 138.03 144.96C137.737 145.307 137.81 145.423 138.25 145.31C159.03 139.94 165.1 122.4 165.7 102.75C165.967 94.2367 166.437 85.74 167.11 77.26C167.563 71.64 168.873 66.7567 171.04 62.61C171.913 60.9433 171.453 60.3933 169.66 60.96C167.44 61.6533 165.303 62.4667 163.25 63.4C159.64 65.06 155.8 65.01 152 66C151.739 66.0699 151.508 66.2209 151.339 66.4313C151.17 66.6417 151.072 66.9004 151.06 67.17ZM54.56 153.69C46.7667 150.877 39.0633 151.06 31.45 154.24C31.0033 154.427 31.01 154.6 31.47 154.76C40.99 158.07 47.62 166.78 54.52 173.61C59.78 178.82 67.75 183.34 74.45 178.27C75.7367 177.297 77.4833 175.053 79.69 171.54C84.92 163.23 88.52 157 98.3 153.39C98.367 153.364 98.4241 153.316 98.4618 153.254C98.4994 153.193 98.5155 153.12 98.5074 153.049C98.4993 152.978 98.4674 152.913 98.417 152.864C98.3666 152.815 98.3007 152.786 98.23 152.78C90.26 151.86 83.48 155.29 76.25 158.02C68.11 161.1 61.22 156.09 54.56 153.69ZM182.21 171.91C188.21 165.44 194.47 157.68 203.34 154.76C203.913 154.573 203.917 154.367 203.35 154.14C194.903 150.787 186.103 151.07 176.95 154.99C173.51 156.46 169.88 158.4 166.85 158.9C156.47 160.61 147.78 150.68 136.44 152.97C135.853 153.083 135.84 153.243 136.4 153.45C148.94 158.13 151.08 166.36 157.47 175.28C164.65 185.31 175.91 178.71 182.21 171.91ZM148.38 176.61C148.593 173.95 147.967 171.407 146.5 168.98C141.74 159.14 129.3 149.12 118.11 155.64C117.83 155.8 117.547 155.807 117.26 155.66C93.88 143.66 70.53 187.2 100.55 199.48C106.463 201.893 111.203 204.243 114.77 206.53C114.836 206.57 114.897 206.624 114.95 206.69C115.67 207.523 116.29 208.413 116.81 209.36C116.851 209.435 116.909 209.499 116.981 209.546C117.052 209.593 117.134 209.621 117.219 209.629C117.304 209.637 117.389 209.624 117.468 209.591C117.547 209.558 117.616 209.506 117.67 209.44C124.42 201.18 135.61 201.01 143 193.63C147.44 189.197 149.233 183.523 148.38 176.61Z" fill="#0D8D4A"/>
<path d="M105.27 79.75C108.24 62.27 113.34 45.54 116.99 28.25C117.006 28.1809 117.045 28.1192 117.101 28.0747C117.156 28.0302 117.225 28.0054 117.296 28.0043C117.367 28.0031 117.437 28.0257 117.493 28.0683C117.55 28.111 117.591 28.1714 117.61 28.24C120.377 39.5267 123.17 50.78 125.99 62C130.843 81.32 132.42 100.91 130.72 120.77C130.18 127.04 126.71 152.97 116.01 150.05C100.01 145.69 103.48 90.31 105.27 79.75Z" fill="white"/>
<path d="M106.7 49.21C103.51 65.08 101.47 80.84 100.56 97C99.76 111.16 99.29 135.95 109.26 147.34C109.332 147.422 109.375 147.525 109.385 147.633C109.395 147.742 109.371 147.851 109.316 147.945C109.261 148.039 109.177 148.113 109.077 148.157C108.978 148.201 108.867 148.213 108.76 148.19C92.78 144.53 88.95 127.43 87.56 112.98C85.88 95.65 86.63 76.42 87.18 59.6C87.35 54.33 87.6 43.79 85.42 39.19C85.3497 39.0401 85.3247 38.873 85.3481 38.7091C85.3715 38.5452 85.4422 38.3917 85.5516 38.2675C85.661 38.1432 85.8043 38.0536 85.9639 38.0096C86.1235 37.9657 86.2924 37.9693 86.45 38.02C89.4233 38.9867 92.0633 40.5233 94.37 42.63C94.6377 42.8717 94.971 43.0314 95.33 43.09C99.58 43.77 104 44.78 106.51 48.31C106.602 48.4395 106.666 48.5863 106.699 48.7411C106.731 48.8959 106.732 49.0555 106.7 49.21Z" fill="white"/>
<path d="M148.13 44.58C148.31 46.2 147.66 47.79 147.65 49.15C147.58 73.22 150.56 99.45 145.81 122.75C143.39 134.57 138.45 145.3 126.08 148.17C125.973 148.195 125.86 148.186 125.758 148.143C125.656 148.1 125.571 148.026 125.514 147.932C125.457 147.837 125.432 147.727 125.442 147.617C125.452 147.507 125.497 147.403 125.57 147.32C134.74 136.87 135.02 114.23 134.5 101.18C133.793 83.6667 131.637 66.3367 128.03 49.19C127.957 48.8633 128.023 48.5667 128.23 48.3C130.84 44.88 134.22 44.12 138.23 43.29C142.64 42.37 144.82 37.44 149.22 38.37C149.72 38.4767 149.803 38.72 149.47 39.1L148.83 39.84C148.741 39.9417 148.679 40.0636 148.649 40.1946C148.62 40.3256 148.623 40.4615 148.66 40.59C148.98 41.7367 148.873 42.76 148.34 43.66C148.167 43.94 148.097 44.2467 148.13 44.58Z" fill="white"/>
<path d="M83.01 65.93C83.2861 65.981 83.5358 66.1256 83.7165 66.3391C83.8971 66.5525 83.9973 66.8215 84 67.1C84.2 80.0867 84.5867 93.1333 85.16 106.24C85.73 119.14 87.8 134.23 96.34 144.39C97.0533 145.237 96.88 145.5 95.82 145.18C67.04 136.41 69.09 106.65 68.27 82.82C68.04 76.13 67.08 67.72 63.56 61.86C63.4934 61.7446 63.4616 61.6123 63.4686 61.4792C63.4755 61.3461 63.5209 61.2179 63.5991 61.11C63.6774 61.0021 63.7853 60.9192 63.9096 60.8713C64.034 60.8234 64.1696 60.8125 64.3 60.84C68.36 61.77 71.66 63.88 75.37 64.54C77.8233 64.98 80.37 65.4433 83.01 65.93Z" fill="white"/>
<path d="M151.06 67.17C151.072 66.9004 151.17 66.6417 151.339 66.4313C151.508 66.2209 151.739 66.0698 152 66C155.8 65.01 159.64 65.06 163.25 63.4C165.303 62.4667 167.44 61.6533 169.66 60.96C171.453 60.3933 171.913 60.9433 171.04 62.61C168.873 66.7567 167.563 71.64 167.11 77.26C166.437 85.74 165.967 94.2367 165.7 102.75C165.1 122.4 159.03 139.94 138.25 145.31C137.81 145.423 137.737 145.307 138.03 144.96C142.29 139.947 145.047 134.877 146.3 129.75C151.38 108.96 150.07 88.34 151.06 67.17Z" fill="white"/>
<path d="M54.56 153.69C61.22 156.09 68.11 161.1 76.25 158.02C83.48 155.29 90.26 151.86 98.23 152.78C98.3007 152.786 98.3666 152.815 98.417 152.864C98.4674 152.913 98.4993 152.978 98.5074 153.049C98.5155 153.12 98.4994 153.193 98.4618 153.254C98.4241 153.316 98.367 153.364 98.3 153.39C88.52 157 84.92 163.23 79.69 171.54C77.4833 175.053 75.7367 177.297 74.45 178.27C67.75 183.34 59.78 178.82 54.52 173.61C47.62 166.78 40.99 158.07 31.47 154.76C31.01 154.6 31.0033 154.427 31.45 154.24C39.0633 151.06 46.7667 150.877 54.56 153.69Z" fill="white"/>
<path d="M182.21 171.91C175.91 178.71 164.65 185.31 157.47 175.28C151.08 166.36 148.94 158.13 136.4 153.45C135.84 153.243 135.853 153.083 136.44 152.97C147.78 150.68 156.47 160.61 166.85 158.9C169.88 158.4 173.51 156.46 176.95 154.99C186.103 151.07 194.903 150.787 203.35 154.14C203.917 154.367 203.913 154.573 203.34 154.76C194.47 157.68 188.21 165.44 182.21 171.91Z" fill="white"/>
<path d="M146.5 168.98L148.38 176.61C149.233 183.523 147.44 189.197 143 193.63C135.61 201.01 124.42 201.18 117.67 209.44C117.616 209.506 117.547 209.558 117.468 209.591C117.389 209.624 117.304 209.637 117.219 209.629C117.134 209.621 117.052 209.593 116.981 209.546C116.909 209.499 116.851 209.435 116.81 209.36C116.29 208.413 115.67 207.523 114.95 206.69C114.897 206.624 114.836 206.57 114.77 206.53C111.203 204.243 106.463 201.893 100.55 199.48C70.5299 187.2 93.88 143.66 117.26 155.66C117.547 155.807 117.83 155.8 118.11 155.64C129.3 149.12 141.74 159.14 146.5 168.98Z" fill="white"/>
<path d="M146.5 168.98C147.967 171.407 148.593 173.95 148.38 176.61L146.5 168.98Z" fill="#CCCCCC"/>
</svg>
